<svg width="36" height="24" viewBox="0 0 36 24" fill="none" xmlns="http://www.w3.org/2000/svg">
<path d="M8.856 19.608C9.66667 19.608 10.328 19.4907 10.84 19.256C11.3733 19 11.7787 18.6693 12.056 18.264C12.3547 17.8373 12.5573 17.3573 12.664 16.824C12.7707 16.2693 12.824 15.704 12.824 15.128V14.552H17.048V15.128C17.048 17.7947 16.344 19.8533 14.936 21.304C13.5493 22.7333 11.5227 23.448 8.856 23.448C6.296 23.448 4.26933 22.6693 2.776 21.112C1.28267 19.5547 0.536 17.2827 0.536 14.296V9.304C0.536 7.87467 0.728 6.59467 1.112 5.464C1.496 4.312 2.05067 3.352 2.776 2.584C3.50133 1.79467 4.376 1.19733 5.4 0.792C6.424 0.365332 7.576 0.151999 8.856 0.151999C10.1787 0.151999 11.352 0.343999 12.376 0.727999C13.4 1.112 14.2533 1.66667 14.936 2.392C15.64 3.11733 16.1627 3.992 16.504 5.016C16.8667 6.04 17.048 7.192 17.048 8.472V9.048H12.824V8.472C12.824 7.93867 12.76 7.40533 12.632 6.872C12.504 6.33867 12.2907 5.85867 11.992 5.432C11.6933 5.00533 11.288 4.664 10.776 4.408C10.264 4.13067 9.624 3.992 8.856 3.992C8.152 3.992 7.544 4.13067 7.032 4.408C6.52 4.664 6.09333 5.02667 5.752 5.496C5.41067 5.944 5.15467 6.47733 4.984 7.096C4.83467 7.69333 4.76 8.32267 4.76 8.984V14.616C4.76 15.3413 4.83467 16.0133 4.984 16.632C5.13333 17.2293 5.368 17.752 5.688 18.2C6.008 18.648 6.424 19 6.936 19.256C7.46933 19.4907 8.10933 19.608 8.856 19.608ZM25.1858 23H21.1538V0.599998H25.1858V9.688H25.7618C26.1671 8.728 26.7644 7.992 27.5538 7.48C28.3431 6.94667 29.3138 6.68 30.4658 6.68C31.2551 6.68 31.9804 6.808 32.6418 7.064C33.3031 7.32 33.8791 7.704 34.3698 8.216C34.8604 8.728 35.2444 9.38933 35.5218 10.2C35.7991 10.9893 35.9378 11.928 35.9378 13.016V23H31.9058V13.976C31.9058 12.8453 31.6284 11.96 31.0738 11.32C30.5404 10.6587 29.7618 10.328 28.7378 10.328C27.5431 10.328 26.6471 10.7333 26.0498 11.544C25.4738 12.3333 25.1858 13.4 25.1858 14.744V23Z" fill="white"/>
</svg>
